<?xml version="1.0" encoding="utf-8"?>
<!-- Generator: Adobe Illustrator 18.1.0, SVG Export Plug-In . SVG Version: 6.00 Build 0)  -->
<svg version="1.1" id="Layer_1" xmlns="http://www.w3.org/2000/svg" xmlns:xlink="http://www.w3.org/1999/xlink" x="0px" y="0px"
	 viewBox="0 0 500 111.6" enable-background="new 0 0 500 111.6" xml:space="preserve">
<g>
	<g>
		<path d="M376.3,18.6c10.3,0,15.6,4.6,15.6,13.4c0,8-8.3,12.9-14.9,12.9c0,0,16.8,24.3,19,27.5c11.9,17.2,28,17.5,27.9,17.5
			c-16.5-9.5-24.5-25-36.2-43.5c8-3.1,12.3-8.6,12.3-15.4c0-10.2-8.5-15.4-25.2-15.4c-4.2,0-8.5,0.3-12.8,0.3
			c-2.2,0-4.4-0.1-6.8-0.2v2.2c6.7,0.4,7.6,1.2,7.6,6v44.2c0,5.7-1.1,7.1-7.6,7.1v2.2c4.2-0.2,8.5-0.3,12.9-0.3
			c4,0,7.6,0.1,10.9,0.3v-2.3c-0.2,0-0.3,0-0.4,0c-7.1,0-7.3-2.3-7.3-10.4c0-0.4,0-0.8,0-1.1l0-44.6
			C371.3,18.7,374.9,18.6,376.3,18.6z"/>
		<path d="M108.5,80c7.7,0,8.9-1.7,8.9-8.3v-52c0-5.6-1-6.7-8.9-7.1V10c4.5,0.3,9.1,0.3,14,0.3c5.5,0,10.2-0.1,13.9-0.3v2.6
			c-8.7,0.3-9,2.7-9,11v19.1H169V19.6c0-6.1-0.3-6.4-8.8-7.1V10c4.1,0.2,8.7,0.3,13.8,0.3c2.2,0,6.8-0.1,13.9-0.3v2.6
			c-8.6,0.4-8.8,2.6-8.8,10c0,0.3,0,0.7,0,1v48c0,6.3,1.2,8.3,8.8,8.4v2.6c-3.9-0.2-8.2-0.3-12.9-0.3c-5.4,0-10.3,0.1-14.9,0.3V80
			c0.2,0,0.4,0,0.6,0c6.6,0,8.2-1.8,8.2-8.3V47.5h-41.5v18.8c0,0.4,0,0.9,0,1.3c0,9.6,0.2,12.3,8.6,12.3c0.1,0,0.2,0,0.4,0v2.7
			c-3.8-0.2-8.1-0.3-12.8-0.3c-5.2,0-10.3,0.1-15.2,0.3V80z"/>
		<path d="M187.5,74.9c6.5,0,7.7-1.4,7.7-7.1V23.6c0-4.8-1-5.6-7.7-6v-2.2c5.6,0.1,11.3,0.2,17.2,0.2c11.9,0,20.4-0.2,25.6-0.3V29
			h-1.9c-0.4-8.3-4.9-10.6-15.4-10.6h-9.3v24.7h7.7c5.4,0,7.5-1.7,7.6-7.4h2.4c-0.4,3.3-0.5,5.9-0.5,8.1c0,3.6,0.3,7.6,0.6,11.8
			h-2.3c0-0.3,0-0.4,0-0.7c0-7.2-2.8-7.9-11-7.9h-4.4v18.4c0,8,1.1,8.8,11.1,8.8c10.3,0,14.7-1.5,18.2-10.9l2.1,0.6
			c-1.2,3.1-2.6,7.7-3.8,13.5c-17.8-0.4-27.6-0.5-32-0.5c-4,0-7.9,0.1-11.9,0.2V74.9z"/>
		<path d="M348.8,23.2c-7.4-6-16.3-7.6-28.2-7.6c-4.4,0-8.7,0.2-13.2,0.2c-2.6,0-11.6-0.3-16-0.3c-4.1,0-7.8-0.1-10.8-0.2v2.4
			c0.3,0,0.5,0,0.9,0c8,0,9.3,3.8,9.3,14.5v30.9l-43-47.6c-3.3,0.2-5.7,0.2-7.6,0.2c-1.2,0-3.8,0-7.5-0.1v2.3
			c7.8,0.3,10.2,2.7,10.2,9.4v32.9c0,10.5,0,14.6-8.6,14.6c-0.1,0-0.2,0-0.3,0V77c4.1-0.2,7.8-0.3,10.9-0.3c3.4,0,7.6,0.1,12.5,0.3
			v-2.3c-9.9,0-10.8-3.5-10.8-14.4V27.1L292.6,78h1.9V31.3c0-9.6,1-13.7,7.2-13.7c6.2,0,5.4,4.1,5.9,6v44.2c0,5.7-1.1,7.1-7.6,7.1
			v2.2c4.6-0.2,8.6-0.3,12.2-0.3c2.9,0,6.2,0.3,9.8,0.3c24.3,0,37.8-12.3,37.8-31.2C359.8,37,355.9,29,348.8,23.2z M324.9,74
			c-8.1,0-8.9-3.2-8.9-11.3V18.5c1.5-0.1,2.9-0.2,4.3-0.2c19,0,30,11,30,28.8C350.4,63.5,340.7,74,324.9,74z"/>
		<path d="M409.2,74.7c6.5,0,7.6-1.2,7.6-6.9V23.6c0-4.8-0.9-5.6-7.6-6v-2.2c3.6,0.2,7.6,0.3,11.9,0.3c4,0,7.9,0,11.8-0.3v2.2
			c-7.4,0.3-7.7,2.3-7.7,9.4v36.3c0,0.3,0,0.8,0,1.1c0,8.1,0.2,10.4,7.3,10.4c0.1,0,0.2,0,0.4,0v2.3c-3.3-0.2-6.9-0.3-10.9-0.3
			c-4.4,0-8.7-0.1-12.9,0.1V74.7z"/>
		<path d="M436.4,74.7c5.7-0.3,8.4-2.6,11.6-6.8L464.1,47l-18-24.2c-1.3-1.8-2.6-3.1-4.5-4c-1.3-0.6-2.9-1-4.8-1.1v-2.2
			c2.9,0.4,6.6,0.4,11.2,0.4c4.9,0,9.3-0.1,13.1-0.4v2.1c-3.9,0.1-5.9,1.1-5.9,2.4c0,1.1,1.1,2.9,3.2,5.6l10.9,14.7l9.4-12.1
			c2.8-3.7,4.2-6.4,4.2-7.9c0-2.1-1.5-2.3-5.6-2.7v-2.1c2.9,0.3,6,0.4,9.2,0.4c2.9,0,6.8-0.1,11.7-0.4v2.1
			c-6.5,0.3-9.7,3.3-13.9,8.9l-12.8,16.8l15.9,21.5c4.8,6.4,7.8,10.1,11.9,10.1c0.3,0,0.4,0,0.6,0V77c-3.1-0.1-6.3-0.2-9.4-0.2
			c-4.3,0-8.7,0.1-13.2,0.3v-2.3c0.4,0,0.7,0,1.1,0c2.6,0,3.7-0.4,3.7-1.9c0-0.9-0.8-2.2-2.2-4.1l-13.8-18.5L454,66.9
			c-2,2.7-3.1,4.5-3.1,5.6c0,1.8,1.9,2.4,5.7,2.4c0.3,0,0.6,0,0.9,0v2.3c-3.5-0.3-7.5-0.4-11.7-0.4c-5.3,0-8.4,0-9.4,0.1V74.7z"/>
	</g>
	<g>
		<rect x="0.3" y="0.2" width="81" height="7.1"/>
		<path fill="#CB4F0C" d="M0,11.6v38.6c0,0,1.1,21.9,14,40c10.2,14.3,26.8,21.5,26.8,21.5s16.6-7.2,26.8-21.5c12.8-18.1,14-40,14-40
			V11.6H0z M26.6,77.9H7.8V56.1c0,0,0.3-5,3.2-9.2c2.3-3.3,6.2-5,6.2-5s3.8,1.7,6.2,5c3,4.2,3.2,9.2,3.2,9.2V77.9z M50.3,77.9H31.6
			V56.1c0,0,0.3-5,3.2-9.2c2.3-3.3,6.2-5,6.2-5s3.8,1.7,6.2,5c3,4.2,3.2,9.2,3.2,9.2V77.9z M73.8,77.9H55.1V56.1c0,0,0.3-5,3.2-9.2
			c2.3-3.3,6.2-5,6.2-5s3.8,1.7,6.2,5c3,4.2,3.2,9.2,3.2,9.2V77.9z"/>
		<g>
			<path fill="#FFFFFF" d="M22.8,29.7c0.1,0.1,0.5,0.3,0.7,0.3c0.2,0,0.2,0.2,0,0.2h-3.9c-0.2,0-0.2-0.2,0-0.2
				c0.2,0,0.5-0.1,0.7-0.3c0.5-0.4,0.6-0.6,0.6-1.5v-3.5c0-0.9-0.1-1.1-0.6-1.5c-0.2-0.1-0.5-0.3-0.7-0.3c-0.2,0-0.2-0.2,0-0.2h3.9
				c0.2,0,0.2,0.2,0,0.2c-0.2,0-0.5,0.1-0.7,0.3c-0.5,0.4-0.6,0.7-0.6,1.5v3.5C22.3,29,22.4,29.3,22.8,29.7z"/>
			<path fill="#FFFFFF" d="M37,27.8c-0.1,1-0.4,1.6-1.6,2.2c-1.1,0.6-2.7,0.3-3.5-0.2c-0.8-0.4-1.2-1.1-1.2-1.8
				c0-1.3,0.7-2.6,2.1-3.1c-1.2-0.9-1.8-2.3-1.5-3.5c0.2-0.8,0.6-1.3,1.4-1.7c0.8-0.3,2.2-0.3,3,0.2c0.7,0.5,1,1.1,1,1.7
				c0.1,1.1-0.5,2.3-1.6,2.7C36.6,25.1,37.1,26.4,37,27.8z M33.4,23.4c0.3,0.2,1.3,0.7,1.3,0.7c0.6-0.3,1-1,1.1-1.6
				c0.1-0.6-0.1-1.7-0.8-2.3c-0.6-0.5-1.4-0.5-2-0.3c-0.5,0.2-0.9,0.7-0.9,1.1C31.9,21.8,32.3,22.7,33.4,23.4z M32,28.6
				c0.4,0.8,1,1.2,1.6,1.3c0.6,0.1,1.4-0.1,1.9-0.5c0.5-0.5,0.6-1,0.5-1.5c-0.3-1.3-2.2-2.5-2.8-2.6c0,0-0.7,0.3-1,0.9
				C31.8,26.8,31.8,28,32,28.6z"/>
			<path fill="#FFFFFF" d="M49.6,22.9c-0.1,0.1-1.9,6.4-1.9,6.4c-1.6,4.6-3.7,5.4-3.7,5.4s1.1-2,1.9-4.3l2-6.5h-2.8
				c-1.5,0-1.9,0.2-2.3,1.3c0,0-0.2,0.1-0.1-0.1l0.6-2.2H49.6z"/>
			<path fill="#FFFFFF" d="M61.8,19.4c-2.6,0.3-5.4,3.1-5.4,6.2c1.1-1.1,2.4-1.6,3.7-1.2c0.9,0.2,1.6,0.8,2,1.8
				c0.3,0.8,0.1,1.9-0.5,2.7c-0.9,1.1-2.5,1.4-3.3,1.3c-1.1-0.1-2.2-0.5-2.9-1.8c-0.9-1.5-0.6-3.8,0.2-5.3c1.2-2.5,4.8-3.9,6.3-3.9
				C61.8,19.2,61.8,19.4,61.8,19.4z M56.4,26.7c-0.1,0.4,0.2,1.9,0.9,2.5c0.7,0.6,1.4,0.7,2,0.5c0.8-0.2,1-0.6,1.3-1.4
				c0.2-0.6,0-1.9-0.5-2.4c-0.6-0.6-1.4-0.8-2-0.7c-0.3,0-0.4,0.1-0.6,0.2C56.9,25.7,56.5,26.2,56.4,26.7z"/>
		</g>
	</g>
	<g>
		<path d="M222.8,111c-2.1,0-3.7-0.8-4.9-2.2c-1.2-1.4-1.8-3.3-1.8-5.5c0-1.9,0.3-3.4,1-4.7c1.2-2.2,3.3-3.6,5.7-3.6
			c1.5,0,2.9,0.4,3.9,1.2l-1.2,1.7c-0.8-0.6-1.7-0.9-2.7-0.9c-1.3,0-2.4,0.7-3.1,1.9c-0.5,0.9-0.8,2.2-0.8,4.1c0,1.9,0.2,3,0.6,3.9
			c0.7,1.5,2,2.2,3.5,2.2c1.1,0,1.9-0.3,2.8-1l1.2,1.6C225.8,110.6,224.5,111,222.8,111z"/>
		<path d="M250.4,111c-4.4,0-6.6-3.4-6.6-8c0-5.1,2.6-8,6.5-8c4.4,0,6.5,3.5,6.5,8C256.8,107.9,254.5,111,250.4,111z M250.3,97
			c-2.6,0-3.6,2.1-3.6,5.8c0,4,1,6.2,3.7,6.2c2.3,0,3.5-1.7,3.5-5.9C253.9,99.4,253.1,97,250.3,97z"/>
		<path d="M283.4,110.8h-8V95.2h2.6v13.4h5.8L283.4,110.8z"/>
		<path d="M309.8,110.8h-8V95.2h2.6v13.4h5.8L309.8,110.8z"/>
		<path d="M328.1,110.8V95.2h8.6l-0.3,2.1h-5.7v4.2h4.8v2.1h-4.7v4.9h6.2v2.2H328.1z"/>
		<path d="M361.5,111c-2.2,0-3.9-0.7-5.1-2.2c-1.2-1.5-1.7-3.2-1.7-5.7c0-3.2,1-5.4,2.9-6.9c1.1-0.9,2.3-1.2,3.8-1.2
			c1.8,0,3.3,0.5,4.6,1.6l-1.3,1.6c-1.1-0.8-2.1-1.2-3.3-1.2c-2.9,0-3.9,2.5-3.9,6.2c0,2.2,0.4,3.7,1.1,4.6c0.6,0.7,1.8,1.2,2.9,1.2
			c0.8,0,1.5-0.2,2.1-0.5v-4h-2.7l-0.4-2.1h5.6v7.3C365,110.5,363.3,111,361.5,111z"/>
		<path d="M385.8,110.8V95.2h8.6l-0.3,2.1h-5.7v4.2h4.8v2.1h-4.7v4.9h6.2v2.2H385.8z"/>
	</g>
</g>
</svg>
