<svg width="268" height="159" viewBox="0 0 268 159" fill="none" xmlns="http://www.w3.org/2000/svg">
<path d="M174.349 7.99595H176.946H253.435C254.521 7.99595 255.217 9.14537 254.711 10.1049L253.671 12.0839C251.789 15.6471 249.908 19.1603 248.032 22.6685L246.626 25.2972C245.114 28.1258 243.603 30.9593 242.092 33.7929L232.581 51.6139L228.798 58.7053C228.287 59.6648 228.983 60.8192 230.069 60.8192H231.835C235.918 60.8192 239.996 60.8192 244.074 60.8442C247.361 60.8642 249.993 61.3589 252.35 62.4034C255.947 63.9976 258.119 66.6463 258.804 70.2744C259.27 72.7332 258.879 75.117 257.648 77.3658C257.113 78.3403 256.578 79.3098 256.037 80.2843C255.297 81.6237 254.561 82.948 253.841 84.2773C253.255 85.3568 252.635 86.5062 252.094 87.6656C250.318 91.4837 247.291 94.1723 243.093 95.6616C241.122 96.3612 238.95 96.801 236.453 97.0059C234.837 97.1408 233.236 97.1508 231.865 97.1508H209.144C208.613 97.1508 208.123 97.4457 207.873 97.9154L180.478 149.244C180.228 149.714 179.738 150.009 179.208 150.009H102.153L99.5459 149.999H23.0114C21.9206 149.999 21.2251 148.84 21.7405 147.88L45.4323 103.777C45.9477 102.818 45.2522 101.659 44.1614 101.659H9.44173C8.35095 101.659 7.65546 100.499 8.17083 99.5396L30.9921 57.0561C31.2422 56.5913 31.7326 56.2965 32.263 56.2965H70.0799C70.6103 56.2965 71.1006 56.0066 71.3508 55.5369L96.4887 8.76056C96.7389 8.2958 97.2292 8.00095 97.7596 8.00095H174.359M174.374 0.00499747H97.7596C94.2721 0.00499747 91.0848 1.90903 89.4337 4.97748L66.1571 48.3005H32.268C28.7805 48.3005 25.5932 50.2046 23.942 53.273L1.11581 95.7515C-0.445305 98.66 -0.360245 102.223 1.33596 105.057C3.03217 107.89 6.13938 109.649 9.44173 109.649H33.1936L14.6905 144.097C13.1294 147.006 13.2094 150.569 14.9056 153.402C16.6018 156.236 19.709 157.995 23.0114 157.995H99.5358L102.128 158.005H102.143H102.158H179.213C182.71 158.005 185.902 156.091 187.548 153.008L213.087 105.152H231.87C233.401 105.152 235.192 105.137 237.114 104.982C240.311 104.717 243.148 104.137 245.78 103.203C251.984 100.999 256.683 96.796 259.36 91.0439C259.8 90.0944 260.35 89.0699 260.881 88.1054C261.551 86.876 262.217 85.6716 262.922 84.3923L263.047 84.1624L263.137 83.9975C263.648 83.0729 264.163 82.1484 264.673 81.2189C266.79 77.3658 267.48 73.073 266.68 68.8102C265.509 62.6233 261.581 57.7608 255.607 55.1121C252.199 53.6029 248.552 52.8882 244.124 52.8632C243.083 52.8582 242.037 52.8532 241.002 52.8482L249.157 37.561C250.668 34.7274 252.174 31.8988 253.686 29.0703L255.092 26.4466C256.838 23.1883 258.814 19.4901 260.751 15.822L261.796 13.843C263.352 10.8895 263.252 7.42624 261.526 4.56769C259.8 1.70913 256.778 0 253.44 0H174.369L174.374 0.00499747Z" fill="#EFF0F0"/>
<path d="M214.278 101.898H204.746L208.233 95.0869H217.765L214.278 101.898Z" fill="white"/>
<path d="M102.153 150.004L99.5459 149.994H20.6047L46.5732 101.654H7.03003L31.3974 56.2915H70.9355L96.889 7.99594H176.946H255.822L253.666 12.0839C251.784 15.6471 249.903 19.1603 248.027 22.6685L246.621 25.2972C245.109 28.1257 243.598 30.9593 242.087 33.7929L232.576 51.6139L227.667 60.8242H231.83C235.913 60.8242 239.991 60.8242 244.069 60.8492C247.356 60.8692 249.988 61.3639 252.345 62.4084C255.942 64.0026 258.114 66.6512 258.799 70.2794C259.265 72.7382 258.874 75.1219 257.643 77.3708C257.108 78.3453 256.573 79.3148 256.032 80.2893C255.292 81.6287 254.556 82.953 253.836 84.2823C253.25 85.3618 252.63 86.5112 252.089 87.6706C250.313 91.4887 247.286 94.1773 243.088 95.6665C241.117 96.3662 238.945 96.806 236.448 97.0109C234.832 97.1458 233.231 97.1558 231.86 97.1558H208.273L180.068 150.009H102.148L102.153 150.004ZM94.6474 140.514L114.326 103.872L115.827 103.742C116.803 103.657 119.6 103.638 121.772 103.638C130.528 103.638 131.208 103.832 131.499 103.912L133.69 104.537L133.52 106.721C133.505 107.176 133.39 107.6 133.18 107.99L115.732 140.504H173.669L182.015 124.972C186.988 115.716 191.967 106.451 196.96 97.1508C196.95 97.1508 196.785 97.1658 196.785 97.1658L196.435 97.1508C196.32 97.1508 196.235 97.1408 196.145 97.1408H91.265L93.6967 99.7545L90.1041 101.329C89.5638 101.564 89.0084 101.679 88.3979 101.679C88.2778 101.679 88.1628 101.678 88.0527 101.669H87.9426C83.0942 101.669 65.5717 101.669 65.5717 101.669C64.4259 101.669 63.2801 101.669 62.1392 101.679H60.4781L57.3608 101.683C54.3087 107.401 51.2365 113.103 48.1693 118.8L48.1343 118.87C44.3266 125.946 40.3938 133.243 36.536 140.504H94.6524L94.6474 140.514ZM76.1342 93.1978L73.4323 90.2243L77.3751 88.82C77.8504 88.6501 78.3358 88.5701 78.8712 88.5701C78.9862 88.5701 79.1013 88.5701 79.2164 88.5801H79.3415H230.624L232.756 88.5901C233.821 88.5901 234.967 88.5751 236.103 88.4602C238.034 88.2653 239.45 87.9554 240.686 87.4557C242.398 86.7661 243.528 85.7466 244.244 84.2423C245.375 81.8535 246.666 79.5447 247.886 77.3858L248.237 76.7661C248.872 75.6467 249.528 74.4923 250.098 73.3578C250.658 72.2334 250.473 71.6187 249.983 70.994C249.753 70.6992 249.342 70.3144 248.192 69.9746C246.851 69.5798 245.365 69.4048 243.373 69.4048H85.9362H85.8111C85.721 69.4048 85.6109 69.4098 85.4959 69.4098C85.3157 69.4098 84.7654 69.4098 84.1249 69.2049L82.9541 68.8301L82.4387 67.7157C82.1535 67.106 81.6932 66.6013 81.0677 66.2265C80.5874 65.9366 79.9819 65.7067 79.1013 65.4718C76.9848 64.9121 74.7432 64.7922 72.0213 64.7822C66.4223 64.7622 60.8233 64.7572 55.2243 64.7572C52.0871 64.7572 39.8684 64.7622 36.556 64.7672L21.3302 93.1178H43.4109L47.1986 86.0414L53.7833 93.2128H76.1392L76.1342 93.1978ZM81.2378 57.261C81.513 57.331 81.7882 57.4109 82.0584 57.4959C84.29 58.1156 86.2364 59.24 87.8375 60.8292H212.566C212.686 60.8292 212.811 60.8242 212.932 60.8142L213.212 60.8042H216.484L239.771 17.4661H181.834L162.686 53.0931L161.095 53.1581C159.824 53.213 157.587 53.243 154.955 53.243C149.476 53.243 146.334 53.1531 145.619 52.9782L142.126 52.1186L160.744 17.4761H102.608L81.2328 57.266L81.2378 57.261Z" fill="white"/>
<path d="M176.946 9.39525H253.516L252.435 11.4392C250.553 14.9974 248.677 18.5106 246.801 22.0139L245.395 24.6425C243.879 27.4711 242.373 30.3047 240.862 33.1382L231.355 50.9592L225.356 62.2135H231.845C235.923 62.2135 240.001 62.2135 244.079 62.2385C247.166 62.2535 249.618 62.7132 251.799 63.6778C254.952 65.0771 256.853 67.3809 257.448 70.5343C257.849 72.6682 257.508 74.7422 256.438 76.6962C255.902 77.6657 255.367 78.6402 254.831 79.6097C254.096 80.944 253.355 82.2733 252.63 83.6127C252.035 84.7121 251.404 85.8815 250.849 87.0759C249.238 90.5392 246.476 92.9879 242.648 94.3472C240.792 95.0069 238.735 95.4217 236.358 95.6166C234.797 95.7465 233.231 95.7565 231.885 95.7565H207.463L179.258 148.61H102.173L99.571 148.6H22.9365L49.5154 99.1298C49.2752 98.8549 49.02 98.5801 48.7549 98.3002L47.6941 100.259H9.36182L32.2331 57.6808H71.7712L97.7247 9.38525H174.349M95.4881 141.908L115.207 105.197L115.958 105.132C116.933 105.047 120.026 105.032 121.782 105.032C124.359 105.032 130.418 105.052 131.123 105.257L132.219 105.572L132.134 106.661C132.134 106.906 132.069 107.136 131.959 107.341L113.411 141.908H174.509L183.251 125.641C188.599 115.691 193.948 105.726 199.322 95.7215C199.087 95.7215 198.852 95.7215 198.617 95.7215C198.126 95.7215 197.481 95.7265 196.84 95.7715H196.765H196.495C196.38 95.7715 196.265 95.7615 196.155 95.7615H88.0728C88.4731 96.1963 88.8784 96.6261 89.2887 97.0709L91.3452 99.2847L89.5489 100.074C89.1886 100.234 88.8134 100.309 88.4031 100.309C88.308 100.309 88.2179 100.309 88.1279 100.299H88.0028C83.0993 100.299 65.5818 100.299 65.5818 100.299C64.436 100.299 63.2902 100.299 62.1444 100.309H60.4882L56.5354 100.314C53.3431 106.296 50.1258 112.268 46.9135 118.235C42.7356 125.991 38.4275 133.992 34.2245 141.923H95.4931L95.4881 141.908ZM79.2916 94.5921L75.8792 90.839L77.8506 90.1394C78.1758 90.0244 78.501 89.9695 78.8763 89.9695C78.9714 89.9695 79.0664 89.9695 79.1565 89.9794H79.3016H230.629L232.756 89.9894C233.862 89.9894 235.052 89.9744 236.253 89.8495C238.32 89.6396 239.851 89.2998 241.217 88.7501C243.248 87.9355 244.654 86.6561 245.515 84.837C246.631 82.4882 247.902 80.2044 249.107 78.0705L249.458 77.4508C250.103 76.3164 250.764 75.147 251.349 73.9775C252.08 72.5233 251.994 71.3039 251.089 70.1345C250.558 69.4498 249.788 68.9901 248.587 68.6353C247.116 68.2005 245.505 68.0056 243.373 68.0056H85.9363H85.7762C85.6861 68.0056 85.5911 68.0106 85.501 68.0106C85.2809 68.0106 84.9456 67.9956 84.5553 67.8706L83.9699 67.6857L83.7147 67.131C83.3144 66.2615 82.669 65.5568 81.7984 65.0321C81.2029 64.6723 80.4824 64.3924 79.4667 64.1225C77.2051 63.5228 74.8634 63.3929 72.0364 63.3829C66.4374 63.3629 60.8334 63.3579 55.2345 63.3579C51.5919 63.3579 35.7306 63.3679 35.7306 63.3679L19.0037 94.5022H44.2566L47.514 88.4202L53.183 94.5921H79.3016H79.2916ZM212.576 62.2235C212.727 62.2235 212.877 62.2185 213.027 62.2085L213.277 62.1985H217.33L242.112 16.0719H181.009L161.84 51.7338L161.045 51.7688C159.789 51.8188 157.577 51.8488 154.965 51.8488C153.069 51.8488 146.81 51.8338 145.964 51.6239L144.218 51.1941L163.086 16.0819H101.783L79.1415 58.2305C80.0171 58.3804 80.8427 58.5803 81.6583 58.8302C83.8648 59.4449 85.7512 60.5893 87.2523 62.2235H212.576Z" fill="white"/>
<path d="M48.4645 95.9014C47.8991 96.9459 47.3838 97.8954 46.8584 98.865H11.6934C18.8334 85.5767 25.9385 72.3434 33.0686 59.0751H72.6067C81.2579 42.9732 89.899 26.8964 98.5602 10.7795H172.017C165.623 22.6735 159.263 34.5025 152.874 46.3915H158.633C165.007 34.5325 171.382 22.6735 177.777 10.7845H251.199C248.852 15.2323 246.5 19.6051 244.159 23.9829C241.807 28.3806 239.465 32.7834 237.119 37.1812C234.787 41.554 232.45 45.9267 230.114 50.3045C227.767 54.7073 225.42 59.1101 223.054 63.5478C223.379 63.6578 223.679 63.6078 223.969 63.6078C230.664 63.6178 237.364 63.5978 244.059 63.6328C246.515 63.6478 248.942 63.9426 251.219 64.9521C253.791 66.0915 255.532 67.9756 256.062 70.7892C256.408 72.6182 256.102 74.3823 255.202 76.0215C253.936 78.3303 252.645 80.6242 251.389 82.938C250.753 84.1024 250.128 85.2768 249.568 86.4812C248.047 89.7446 245.505 91.8385 242.162 93.0279C240.246 93.7076 238.26 94.0574 236.228 94.2223C234.222 94.3872 232.22 94.3522 230.214 94.3572C222.623 94.3622 215.033 94.3572 207.448 94.3572H206.612C197.22 111.958 187.819 129.574 178.407 147.21H104.489C111.084 134.932 117.644 122.713 124.228 110.449H118.459C111.885 122.688 105.31 134.937 98.7203 147.2H25.268C33.9292 131.084 42.5553 115.027 51.1815 98.9599C50.3759 97.8954 49.4052 97.0159 48.4645 95.8914V95.9014ZM196.735 94.3772C196.54 94.3722 196.345 94.3572 196.15 94.3572C183.14 94.3572 170.131 94.3572 157.117 94.3572C145.609 94.3572 134.1 94.3572 122.592 94.3572C110.404 94.3572 98.2199 94.3572 86.0313 94.3572H84.9705C86.2965 95.9314 87.6274 97.3257 88.9834 98.785C88.5931 98.9549 88.2879 98.8899 87.9927 98.8899C80.5173 98.8899 73.047 98.8899 65.5717 98.8899C63.8705 98.8899 62.1693 98.8999 60.4681 98.9049H55.6847C47.7991 113.687 39.7884 128.375 31.9678 143.163C31.9578 143.182 31.9678 143.217 31.9828 143.242C31.9928 143.262 32.0128 143.282 32.0278 143.297H96.3186C102.918 131.014 109.508 118.74 116.073 106.516C117.939 106.351 130.138 106.421 130.733 106.591C130.733 106.616 130.733 106.646 130.723 106.671C124.238 118.755 117.754 130.839 111.269 142.923C111.229 142.993 111.204 143.073 111.179 143.153C111.169 143.178 111.179 143.207 111.194 143.232C111.204 143.252 111.219 143.272 111.234 143.292H175.34C184.096 126.986 192.852 110.709 201.649 94.3122C199.897 94.3672 198.316 94.2623 196.73 94.3772H196.735ZM213.327 63.5878H218.165C226.932 47.2761 235.673 30.9993 244.444 14.6776H180.173C173.764 26.5965 167.369 38.5005 160.99 50.3745C157.417 50.5194 147.04 50.4545 146.299 50.2695C152.669 38.4155 159.038 26.5665 165.423 14.6876H100.952C92.9662 29.555 84.9855 44.4025 76.9598 59.35C78.5109 59.4949 79.8969 59.7497 81.2529 60.1595C83.4144 60.7642 85.2307 61.9187 86.6167 63.6128C86.8819 63.6128 87.047 63.6128 87.2121 63.6128C129.002 63.6128 170.792 63.6128 212.576 63.6128C212.827 63.6128 213.077 63.5978 213.327 63.5878ZM78.3158 91.4437C78.696 91.3088 79.0013 91.3687 79.2965 91.3687C129.737 91.3687 180.183 91.3687 230.624 91.3637C232.546 91.3637 234.467 91.4187 236.388 91.2238C238.225 91.0389 240.016 90.7191 241.732 90.0294C243.984 89.1249 245.715 87.6406 246.771 85.4217C247.851 83.1429 249.077 80.939 250.318 78.7451C251.094 77.3708 251.889 76.0015 252.595 74.5922C253.51 72.7632 253.49 70.9491 252.189 69.2749C251.374 68.2205 250.228 67.6607 248.982 67.2909C247.151 66.7512 245.275 66.6063 243.373 66.6063C190.896 66.6063 138.414 66.6063 85.9362 66.6063C85.631 66.6063 85.3258 66.6563 84.9755 66.5463C84.4501 65.4069 83.6095 64.5023 82.5138 63.8377C81.6782 63.3329 80.7575 63.0231 79.8168 62.7732C77.265 62.0986 74.6432 61.9986 72.0363 61.9886C59.9277 61.9436 47.8191 61.9686 35.7105 61.9736C35.4353 61.9736 35.1551 61.9236 34.8598 62.0286C28.8155 73.2829 22.7612 84.5472 16.6669 95.8914H45.0871C45.9828 94.2123 46.8834 92.5382 47.8091 90.809C49.4402 92.5881 51.0213 94.3073 52.5624 95.9864H82.4437C81.0277 94.4272 79.6868 92.9529 78.3208 91.4487L78.3158 91.4437Z" fill="black"/>
<path d="M211.961 98.5351C212.511 97.9554 213.057 97.3707 213.607 96.791C213.877 96.681 214.152 96.756 214.558 96.726C213.977 97.8255 213.442 98.8299 212.926 99.7995C212.696 99.9044 212.511 99.9194 212.296 99.7945C212.501 99.3797 212.706 98.9649 212.911 98.5501C212.931 98.4951 212.952 98.4451 212.972 98.3902C213.062 98.3702 213.127 98.3302 213.102 98.2202C213.112 98.1653 213.122 98.1053 213.127 98.0503C213.202 98.0503 213.272 98.0503 213.232 97.8754C213.187 97.9654 213.167 98.0154 213.142 98.0653C213.027 98.0553 212.977 98.1203 212.962 98.2202C212.861 98.2302 212.806 98.2852 212.806 98.3902V98.4102C212.436 98.815 212.066 99.2197 211.686 99.6195C211.5 99.8144 211.495 99.8094 211.02 99.8544C210.86 99.4096 211.235 99.0049 211.14 98.5701C211.345 98.3802 211.31 98.1303 211.3 97.8854C211.45 97.8254 211.505 97.7405 211.38 97.6056C211.255 97.6655 211.16 97.7505 211.135 97.8954C211.135 97.9904 211.125 98.0803 211.125 98.1753C210.72 98.665 210.535 99.2897 210.2 99.7695C209.989 99.9394 209.809 99.8794 209.549 99.8144C210.109 98.765 210.645 97.7555 211.17 96.766C211.505 96.716 211.776 96.696 212.091 96.786C212.006 97.3257 211.926 97.8554 211.841 98.3902C211.811 98.4851 211.771 98.5851 211.886 98.655C211.911 98.6101 211.936 98.5701 211.961 98.5251V98.5351Z" fill="#000504"/>
<path d="M210.62 96.761C210.65 97.0509 210.53 97.1958 210.35 97.3707H209.444C208.989 98.2103 208.544 99.0299 208.118 99.8145C207.878 99.9294 207.693 99.8694 207.418 99.8594C207.853 99.0299 208.253 98.2553 208.654 97.4856C208.408 97.2807 208.133 97.4457 207.843 97.3107C207.873 97.1258 207.928 96.9359 208.133 96.756H210.62V96.761Z" fill="#0B110F"/>
<path d="M211.12 98.1753C211.12 98.0803 211.13 97.9904 211.13 97.8954C211.185 97.8954 211.24 97.8904 211.3 97.8854C211.31 98.1253 211.346 98.3752 211.14 98.5701C211.135 98.4402 211.125 98.3052 211.12 98.1753Z" fill="#ABA9A9"/>
<path d="M211.961 98.5351C211.936 98.5751 211.911 98.6201 211.886 98.665C211.771 98.5901 211.811 98.4951 211.841 98.4002C211.916 98.4202 211.956 98.4651 211.966 98.5401L211.961 98.5351Z" fill="white"/>
<path d="M212.977 98.3952C212.957 98.4501 212.936 98.5001 212.916 98.5551C212.881 98.5101 212.851 98.4601 212.816 98.4152V98.3952C212.866 98.3952 212.921 98.3952 212.977 98.3952Z" fill="white"/>
<path d="M213.327 63.5928C213.077 63.6028 212.827 63.6178 212.576 63.6178C170.787 63.6178 128.997 63.6178 87.2122 63.6178C87.0471 63.6178 86.8769 63.6178 86.6167 63.6178C85.2308 61.9237 83.4195 60.7642 81.2529 60.1645C81.5181 60.0196 81.6032 59.7448 81.7333 59.4999C82.4988 58.0856 83.2694 56.6713 84.0349 55.252C89.4588 45.1471 94.8826 35.0423 100.306 24.9374C101.367 22.9584 102.438 20.9794 103.504 18.9904H158.258C155.035 24.9824 151.838 30.9143 148.656 36.8513C145.474 42.7783 142.271 48.6953 139.069 54.7073H163.516C169.926 42.7933 176.336 30.8694 182.72 18.9954H237.249C237.084 19.3102 236.949 19.5801 236.804 19.85C231.575 29.585 226.346 39.3201 221.117 49.0602C218.516 53.9027 215.924 58.7503 213.327 63.5928Z" fill="#A30C33"/>
<path d="M60.473 98.9099C62.1742 98.9049 63.8754 98.8949 65.5766 98.8949C73.0519 98.8949 80.5222 98.8949 87.9976 98.8949C88.2878 98.8949 88.598 98.9649 88.9883 98.79C87.6323 97.3307 86.3014 95.9414 84.9754 94.3622H86.0362C98.2248 94.3622 110.409 94.3622 122.597 94.3622C134.105 94.3622 145.614 94.3622 157.122 94.3622C170.131 94.3622 183.14 94.3622 196.155 94.3622C196.35 94.3622 196.545 94.3722 196.74 94.3822C196.345 95.1418 195.954 95.9114 195.544 96.666C192.357 102.613 189.17 108.565 185.972 114.507C182.435 121.089 178.887 127.66 175.35 134.242C174.494 135.831 173.649 137.42 172.808 138.985H118.254C124.839 126.721 131.393 114.517 137.973 102.268H113.511C106.926 114.527 100.341 126.776 93.7817 138.99H39.0427C39.2078 138.67 39.3479 138.395 39.493 138.13C40.794 135.706 42.0899 133.283 43.3908 130.859C48.5445 121.269 53.7082 111.683 58.8518 102.088C59.4122 101.039 60.0727 100.039 60.478 98.9099H60.473Z" fill="#A30C33"/>
<path d="M78.3157 91.4487C79.6817 92.9529 81.0227 94.4272 82.4387 95.9864H52.5574C51.0163 94.3122 49.4402 92.5881 47.804 90.809C46.8784 92.5381 45.9827 94.2173 45.0821 95.8914H16.6619C22.7562 84.5472 28.8105 73.2779 34.8548 62.0286C35.15 61.9186 35.4302 61.9736 35.7054 61.9736C47.814 61.9736 59.9227 61.9486 72.0313 61.9886C74.6381 61.9986 77.26 62.0985 79.8118 62.7732C80.7525 63.0231 81.6681 63.3329 82.5087 63.8377C83.6045 64.4973 84.4451 65.4069 84.9705 66.5463C85.3157 66.6562 85.6259 66.6063 85.9312 66.6063C138.409 66.6063 190.891 66.6063 243.368 66.6063C245.27 66.6063 247.151 66.7512 248.977 67.2909C250.223 67.6607 251.369 68.2204 252.184 69.2749C253.485 70.9491 253.505 72.7631 252.59 74.5922C251.884 76.0015 251.089 77.3708 250.313 78.7451C249.072 80.939 247.846 83.1429 246.766 85.4217C245.715 87.6406 243.984 89.1249 241.727 90.0294C240.011 90.7191 238.22 91.0339 236.383 91.2238C234.462 91.4187 232.54 91.3637 230.619 91.3637C180.178 91.3637 129.732 91.3637 79.2914 91.3687C78.9962 91.3687 78.691 91.3088 78.3107 91.4437L78.3157 91.4487ZM36.7862 65.2669C32.0478 74.0475 27.3445 82.7681 22.6461 91.4837C22.501 91.7535 22.3759 92.0284 22.2458 92.3033C22.2108 92.3782 22.1758 92.4532 22.1458 92.5281C22.1358 92.5531 22.1458 92.5831 22.1558 92.6081C22.1658 92.6281 22.1908 92.6431 22.2358 92.6831H43.1457C44.4516 90.2443 45.7576 87.8105 47.1185 85.2768C49.4152 87.7955 51.6518 90.2493 53.8633 92.6731H75.0734C72.6717 90.0344 70.3551 87.4807 67.9834 84.877C69.8997 84.5822 71.636 84.0474 73.2371 83.1429C74.1878 82.6082 75.0484 81.9485 75.7639 81.1289C76.6446 80.1244 77.32 78.98 77.9455 77.8056C79.1513 75.5617 80.3472 73.3179 81.563 71.079C81.8282 70.5892 82.0234 70.0695 82.1485 69.5348C82.2986 68.9101 82.2585 68.2954 81.9333 67.6807C81.458 66.7962 80.6474 66.4214 79.7868 66.1065C78.1056 65.4968 76.3343 65.2969 74.5731 65.2919C62.1042 65.247 49.6353 65.2619 37.1665 65.2569C37.0564 65.2569 36.9463 65.2569 36.7862 65.2569V65.2669ZM134.065 88.1853H135.081C140.185 88.1853 145.288 88.2153 150.392 88.1753C153.479 88.1504 156.566 88.3153 159.659 88.0654C160.764 87.9754 161.87 87.9055 162.946 87.6806C165.273 87.1958 167.164 86.0614 168.315 83.8975C169.316 82.0185 170.311 80.1344 171.322 78.2554C171.832 77.3058 172.403 76.3863 172.888 75.4218C173.418 74.3673 174.124 73.3828 174.274 72.1685C174.124 71.6887 174.039 71.164 173.574 70.8841C173.173 70.6392 172.763 70.4093 172.293 70.3044C170.887 69.9796 169.461 69.8096 168.025 69.8096C160.244 69.8046 152.464 69.8096 144.678 69.8096H143.932C140.655 75.9116 137.398 81.9735 134.055 88.1953L134.065 88.1853ZM99.766 88.1853H100.662C106.015 88.1853 111.374 88.2103 116.728 88.1753C119.595 88.1554 122.457 88.3003 125.324 88.0654C126.43 87.9754 127.531 87.9055 128.617 87.6856C130.983 87.2008 132.875 86.0264 134.04 83.8425C134.941 82.1584 135.817 80.4592 136.757 78.8001C137.278 77.8856 137.768 76.956 138.253 76.0265C138.829 74.9321 139.559 73.9026 139.885 72.6832C139.985 72.3084 139.95 71.9885 139.814 71.6387C139.489 70.8091 138.754 70.5243 138.003 70.3244C136.582 69.9396 135.121 69.8146 133.65 69.8146C125.95 69.8096 118.249 69.8146 110.554 69.8146C110.278 69.8146 109.998 69.8146 109.633 69.8146C106.366 75.9016 103.093 81.9885 99.756 88.2003L99.766 88.1853ZM213.552 81.5287C213.287 82.0584 213.067 82.5732 212.776 83.0379C212.466 83.5327 212.226 84.0624 211.941 84.5672C211.15 85.9765 211.786 87.0009 212.977 87.4307C213.082 87.4707 213.187 87.4957 213.292 87.5307C214.773 88.0454 216.334 88.1354 217.87 88.1554C222.388 88.2153 226.911 88.1653 231.43 88.1803C233.456 88.1853 235.483 88.1454 237.489 87.8455C238.915 87.6356 240.296 87.2658 241.562 86.5362C242.272 86.1264 242.953 85.6366 243.353 84.947C244.089 83.6826 244.744 82.3633 245.315 81.014C245.55 80.4543 245.41 79.9745 245.079 79.5447C244.664 79.005 244.114 78.6502 243.433 78.4853C239.796 77.6007 236.163 76.7111 232.531 75.8116C232.06 75.6967 231.545 75.6317 231.235 75.1869C231.515 74.1225 233.051 73.5977 234.357 74.0675C234.897 74.3923 234.562 74.8771 234.602 75.2969H248.532C248.742 74.952 248.952 74.6272 249.137 74.2924C249.327 73.9525 249.463 73.5827 249.668 73.2579C250.428 72.0435 249.803 70.9691 248.702 70.5942C248.572 70.5493 248.442 70.4993 248.317 70.4543C246.921 69.9446 245.45 69.8096 243.994 69.8196C237.444 69.8696 230.894 69.6147 224.35 69.9446C223.404 69.9896 222.463 70.0845 221.563 70.3294C220.287 70.6792 219.131 71.2589 218.48 72.5233C217.975 73.5078 217.435 74.4773 216.929 75.4618C216.504 76.2914 216.579 76.6512 217.215 77.3158C217.55 77.6707 217.945 77.9205 218.39 78.0855C218.981 78.3053 219.586 78.5102 220.202 78.6602C222.854 79.2898 225.516 79.8745 228.157 80.5242C229.083 80.7491 230.069 80.8441 230.859 81.4438C230.894 82.5382 230.419 83.3428 229.423 83.7376C228.563 84.0774 227.682 84.2773 226.881 83.5927C226.927 82.7831 227.552 82.2733 227.702 81.5237H213.562L213.552 81.5287ZM184.897 88.1404H207.613C208.333 86.7761 209.044 85.4317 209.799 84.0075C208.714 84.0075 207.768 84.0075 206.822 84.0075C205.902 84.0075 204.981 84.0125 204.06 84.0075C203.135 84.0025 202.209 84.0424 201.193 83.9775C201.794 82.858 202.329 81.8635 202.889 80.8191H211.476C212.246 79.4498 213.002 78.1404 213.722 76.6562H205.286C205.451 75.9315 206.307 74.4073 206.787 73.9675H215.258C215.879 72.5483 216.764 71.3039 217.355 69.8496H194.724C191.451 75.9315 188.184 81.9835 184.902 88.1454L184.897 88.1404ZM107.196 69.8396H84.5602C81.3479 75.9166 78.0105 81.9035 74.8683 87.9954C74.8583 88.0154 74.8783 88.0504 74.8883 88.0754C74.8983 88.1004 74.9233 88.1154 74.9534 88.1504H97.4694C98.1148 86.7561 98.9704 85.4767 99.6159 83.9825C96.7639 83.9825 94.0069 83.9825 91.2499 83.9825C91.2249 83.9825 91.1949 83.9625 91.1799 83.9425C91.1649 83.9275 91.1549 83.8975 91.1199 83.8275C91.6402 82.863 92.1706 81.8685 92.721 80.8391H101.332C102.083 79.4697 102.833 78.0955 103.629 76.6362H95.1427C95.2578 76.0165 96.1234 74.4273 96.5987 73.9675H105.07C105.74 72.5682 106.591 71.3039 107.191 69.8396H107.196ZM182.515 88.1504C185.792 82.0534 189.07 75.9615 192.367 69.8296H178.262C174.995 75.9116 171.722 82.0035 168.42 88.1504H182.515Z" fill="white"/>
<path d="M60.4731 98.9099C60.0678 100.039 59.4073 101.039 58.8469 102.088C53.7032 111.683 48.5446 121.269 43.3859 130.859C42.085 133.283 40.784 135.706 39.4881 138.13C39.343 138.4 39.2079 138.67 39.0378 138.99H93.7768C100.336 126.776 106.921 114.527 113.506 102.268H137.968C131.389 114.517 124.834 126.721 118.249 138.985H172.803C173.639 137.42 174.489 135.831 175.345 134.242C178.887 127.665 182.43 121.089 185.967 114.507C189.165 108.565 192.347 102.613 195.539 96.666C195.944 95.9064 196.335 95.1418 196.735 94.3822C198.321 94.2673 199.907 94.3722 201.654 94.3172C192.852 110.719 184.101 126.996 175.345 143.297H111.239C111.239 143.297 111.209 143.262 111.199 143.237C111.189 143.212 111.179 143.177 111.184 143.157C111.209 143.078 111.234 142.998 111.274 142.928C117.759 130.844 124.243 118.76 130.728 106.676C130.738 106.656 130.733 106.626 130.738 106.596C130.143 106.426 117.944 106.356 116.078 106.521C109.513 118.745 102.918 131.019 96.3236 143.302C74.8733 143.302 53.4531 143.302 32.0328 143.302C32.0178 143.282 31.9978 143.267 31.9878 143.247C31.9778 143.222 31.9628 143.187 31.9728 143.168C39.7933 128.38 47.804 113.692 55.6897 98.9099H60.4731Z" fill="white"/>
<path d="M213.327 63.5928C215.924 58.7502 218.515 53.9027 221.117 49.0602C226.346 39.3251 231.575 29.59 236.803 19.8499C236.949 19.5851 237.084 19.3152 237.249 18.9954H182.72C176.335 30.8644 169.926 42.7883 163.516 54.7073H139.069C142.271 48.6953 145.473 42.7783 148.656 36.8513C151.843 30.9143 155.04 24.9773 158.258 18.9904H103.504C102.433 20.9744 101.367 22.9534 100.306 24.9374C94.8825 35.0422 89.4586 45.1471 84.0348 55.252C83.2742 56.6713 82.4987 58.0856 81.7331 59.4999C81.603 59.7447 81.518 60.0196 81.2528 60.1645C79.8968 59.7497 78.5108 59.4949 76.9597 59.3549C84.9904 44.4075 92.9661 29.56 100.952 14.6926H165.423C159.038 26.5715 152.674 38.4205 146.299 50.2745C147.04 50.4594 157.417 50.5244 160.99 50.3795C167.369 38.5105 173.769 26.6065 180.173 14.6826H244.444C235.673 31.0043 226.926 47.2811 218.165 63.5928C216.549 63.5928 214.938 63.5928 213.327 63.5928Z" fill="white"/>
<path d="M211.3 97.8905C211.245 97.8905 211.19 97.8954 211.13 97.9004C211.155 97.7605 211.25 97.6756 211.376 97.6106C211.501 97.7455 211.446 97.8305 211.295 97.8905H211.3Z" fill="#31312F"/>
<path d="M212.977 98.3952C212.921 98.3952 212.866 98.3952 212.806 98.3952C212.806 98.2902 212.861 98.2353 212.962 98.2253C213.007 98.2253 213.057 98.2253 213.102 98.2253C213.127 98.3302 213.062 98.3752 212.972 98.3952H212.977Z" fill="#C3C2C3"/>
<path d="M213.142 98.0653C213.167 98.0154 213.192 97.9654 213.232 97.8754C213.272 98.0553 213.202 98.0503 213.127 98.0503L213.142 98.0653Z" fill="#9D9C9D"/>
<path d="M213.102 98.2253C213.057 98.2253 213.007 98.2253 212.962 98.2253C212.977 98.1203 213.027 98.0604 213.142 98.0704L213.127 98.0554C213.117 98.1103 213.107 98.1703 213.102 98.2253Z" fill="#C3C3C3"/>
<path d="M36.7862 65.267C36.9463 65.267 37.0564 65.267 37.1664 65.267C49.6353 65.272 62.1042 65.262 74.5731 65.3019C76.3293 65.3069 78.1056 65.5068 79.7868 66.1165C80.6474 66.4314 81.463 66.8062 81.9333 67.6907C82.2585 68.3004 82.2985 68.9201 82.1484 69.5448C82.0234 70.0745 81.8282 70.5943 81.563 71.089C80.3472 73.3279 79.1513 75.5718 77.9455 77.8156C77.315 78.99 76.6395 80.1344 75.7639 81.1389C75.0484 81.9585 74.1878 82.6182 73.2371 83.1529C71.631 84.0574 69.8997 84.5972 67.9834 84.887C70.35 87.4907 72.6717 90.0444 75.0734 92.6831H53.8633C51.6567 90.2593 49.4202 87.8106 47.1185 85.2868C45.7576 87.8205 44.4566 90.2543 43.1457 92.6931H22.2358C22.1908 92.6531 22.1658 92.6381 22.1558 92.6181C22.1457 92.5931 22.1357 92.5581 22.1457 92.5382C22.1758 92.4632 22.2058 92.3882 22.2458 92.3133C22.3809 92.0384 22.501 91.7586 22.6461 91.4937C27.3494 82.7731 32.0528 74.0575 36.7862 65.277V65.267ZM54.5888 71.4588C53.393 73.3329 50.671 78.6102 50.641 79.1499C51.7268 79.1499 52.8126 79.2149 53.8883 79.1349C55.2443 79.035 56.4151 78.5053 57.1006 77.2359C57.8462 75.8466 58.6417 74.4823 59.3172 73.058C59.4173 72.8481 59.4723 72.6482 59.4023 72.3884C59.1271 71.9786 58.7418 71.7387 58.2114 71.6187C56.9955 71.3439 55.7797 71.5388 54.5888 71.4638V71.4588Z" fill="#9EA4A9"/>
<path d="M134.065 88.1853C137.408 81.9685 140.665 75.9016 143.942 69.7997H144.688C152.469 69.7997 160.249 69.7997 168.035 69.7997C169.476 69.7997 170.902 69.9696 172.303 70.2944C172.773 70.4043 173.183 70.6342 173.584 70.8741C174.049 71.159 174.129 71.6837 174.284 72.1585C174.129 73.3678 173.423 74.3573 172.898 75.4118C172.418 76.3763 171.847 77.2959 171.332 78.2454C170.321 80.1244 169.326 82.0085 168.325 83.8875C167.174 86.0514 165.283 87.1908 162.956 87.6706C161.875 87.8955 160.769 87.9655 159.669 88.0554C156.581 88.3053 153.489 88.1454 150.402 88.1654C145.298 88.2053 140.195 88.1754 135.091 88.1754H134.075L134.065 88.1853ZM155.786 74.0225C154.015 77.3308 152.198 80.5792 150.472 83.9475C151.468 84.0774 152.353 84.0225 153.214 83.8176C153.749 83.6926 154.24 83.3778 154.535 82.868C154.785 82.4383 155.02 82.0035 155.256 81.5637C156.301 79.6147 157.342 77.6657 158.383 75.7117C158.558 75.3768 158.823 75.077 158.813 74.6672C158.383 73.9675 158.062 73.8976 155.791 74.0175L155.786 74.0225Z" fill="#9EA4A9"/>
<path d="M99.7661 88.1853C103.103 81.9735 106.371 75.8866 109.643 69.7997C110.013 69.7997 110.289 69.7997 110.564 69.7997C118.264 69.7997 125.965 69.7997 133.66 69.7997C135.126 69.7997 136.592 69.9296 138.013 70.3094C138.764 70.5093 139.499 70.7942 139.825 71.6237C139.96 71.9736 139.995 72.2934 139.895 72.6682C139.569 73.8926 138.834 74.9171 138.264 76.0115C137.778 76.941 137.283 77.8706 136.767 78.7851C135.827 80.4493 134.946 82.1434 134.051 83.8276C132.885 86.0164 130.988 87.1858 128.627 87.6706C127.546 87.8905 126.44 87.9605 125.334 88.0504C122.467 88.2903 119.6 88.1454 116.738 88.1604C111.384 88.1953 106.026 88.1703 100.672 88.1703H99.7761L99.7661 88.1853ZM121.537 73.9925C120.006 76.5063 116.393 83.4028 116.308 83.9675C117.168 84.0574 118.019 83.9925 118.865 83.8276C119.435 83.7176 119.88 83.3928 120.196 82.913C120.391 82.6132 120.561 82.2933 120.731 81.9785C121.447 80.6691 122.167 79.3598 122.873 78.0455C123.358 77.1459 123.838 76.2414 124.304 75.3319C124.499 74.952 124.634 74.5572 124.173 74.1974C123.328 73.8576 122.412 74.0075 121.532 73.9925H121.537Z" fill="#9EA4A9"/>
<path d="M213.552 81.5237H227.692C227.542 82.2734 226.917 82.7831 226.872 83.5927C227.677 84.2773 228.558 84.0774 229.413 83.7376C230.409 83.3428 230.889 82.5432 230.849 81.4438C230.059 80.8441 229.073 80.7491 228.147 80.5242C225.501 79.8746 222.839 79.2899 220.192 78.6602C219.576 78.5153 218.976 78.3104 218.381 78.0855C217.94 77.9206 217.545 77.6657 217.205 77.3159C216.569 76.6512 216.494 76.2914 216.919 75.4618C217.425 74.4773 217.965 73.5078 218.471 72.5233C219.121 71.2589 220.277 70.6792 221.553 70.3294C222.453 70.0795 223.394 69.9896 224.34 69.9446C230.884 69.6148 237.439 69.8696 243.984 69.8197C245.44 69.8097 246.911 69.9446 248.307 70.4543C248.437 70.4993 248.562 70.5543 248.692 70.5943C249.788 70.9691 250.418 72.0435 249.658 73.2579C249.453 73.5877 249.313 73.9526 249.127 74.2924C248.942 74.6272 248.732 74.9521 248.522 75.2969H234.592C234.557 74.8771 234.887 74.3923 234.347 74.0675C233.041 73.5977 231.505 74.1225 231.225 75.1869C231.535 75.6317 232.05 75.6967 232.521 75.8116C236.153 76.7112 239.786 77.6057 243.423 78.4853C244.104 78.6502 244.654 79.005 245.069 79.5447C245.4 79.9745 245.54 80.4543 245.305 81.014C244.734 82.3683 244.079 83.6826 243.343 84.947C242.943 85.6366 242.263 86.1264 241.552 86.5362C240.286 87.2658 238.905 87.6356 237.479 87.8455C235.473 88.1404 233.446 88.1854 231.42 88.1804C226.902 88.1654 222.378 88.2153 217.86 88.1554C216.324 88.1354 214.768 88.0404 213.282 87.5307C213.177 87.4957 213.072 87.4707 212.967 87.4307C211.776 86.996 211.14 85.9715 211.931 84.5672C212.216 84.0624 212.456 83.5327 212.767 83.038C213.057 82.5732 213.277 82.0585 213.542 81.5287L213.552 81.5237Z" fill="#9EA4A9"/>
<path d="M184.897 88.1404C188.179 81.9785 191.446 75.9266 194.719 69.8446H217.35C216.759 71.2989 215.874 72.5383 215.253 73.9626H206.782C206.302 74.4023 205.446 75.9216 205.281 76.6512H213.717C212.997 78.1354 212.241 79.4498 211.471 80.8141H202.884C202.324 81.8586 201.789 82.8531 201.188 83.9725C202.204 84.0375 203.13 83.9975 204.055 84.0025C204.976 84.0075 205.897 84.0025 206.817 84.0025C207.763 84.0025 208.709 84.0025 209.794 84.0025C209.039 85.4267 208.328 86.7761 207.608 88.1354H184.892L184.897 88.1404Z" fill="#9EA4A9"/>
<path d="M107.191 69.8396C106.586 71.3039 105.74 72.5682 105.07 73.9675H96.5989C96.1236 74.4273 95.253 76.0165 95.1429 76.6362H103.629C102.833 78.0955 102.078 79.4698 101.332 80.8391H92.7212C92.1708 81.8685 91.6354 82.863 91.12 83.8275C91.155 83.8975 91.16 83.9225 91.1801 83.9425C91.2001 83.9625 91.2301 83.9825 91.2501 83.9825C94.0071 83.9825 96.764 83.9825 99.6161 83.9825C98.9706 85.4767 98.115 86.7561 97.4695 88.1504H74.9535C74.9235 88.1154 74.9035 88.1004 74.8885 88.0754C74.8785 88.0504 74.8584 88.0154 74.8685 87.9954C78.0107 81.9035 81.3481 75.9166 84.5603 69.8396H107.196H107.191Z" fill="#9EA4A9"/>
<path d="M182.515 88.1504H168.42C171.722 81.9985 174.995 75.9066 178.262 69.8297H192.367C189.07 75.9665 185.792 82.0585 182.515 88.1504Z" fill="#9EA4A9"/>
<path d="M54.5889 71.4588C55.7748 71.5338 56.9956 71.3389 58.2115 71.6137C58.7419 71.7337 59.1272 71.9736 59.4023 72.3834C59.4724 72.6382 59.4174 72.8381 59.3173 73.053C58.6418 74.4823 57.8462 75.8416 57.1007 77.2309C56.4202 78.5003 55.2444 79.03 53.8884 79.1299C52.8127 79.2099 51.7269 79.1449 50.6411 79.1449C50.6661 78.6052 53.3931 73.3279 54.5889 71.4538V71.4588Z" fill="white"/>
<path d="M155.786 74.0175C158.062 73.8976 158.383 73.9675 158.808 74.6672C158.818 75.077 158.553 75.3768 158.378 75.7117C157.337 77.6657 156.296 79.6147 155.25 81.5637C155.015 82.0035 154.78 82.4383 154.53 82.868C154.235 83.3778 153.744 83.6876 153.209 83.8176C152.348 84.0225 151.463 84.0774 150.467 83.9475C152.193 80.5792 154.01 77.3308 155.781 74.0225L155.786 74.0175Z" fill="white"/>
<path d="M121.532 73.9925C122.412 74.0075 123.328 73.8576 124.173 74.1974C124.634 74.5572 124.499 74.952 124.304 75.3318C123.838 76.2414 123.358 77.1459 122.873 78.0455C122.162 79.3598 121.447 80.6691 120.731 81.9785C120.561 82.2933 120.391 82.6132 120.196 82.913C119.88 83.3928 119.435 83.7226 118.865 83.8275C118.019 83.9875 117.168 84.0574 116.308 83.9675C116.393 83.4028 120.005 76.5063 121.537 73.9925H121.532Z" fill="white"/>
</svg>
